<svg width="1200" height="800" viewBox="0 0 1200 800" xmlns="http://www.w3.org/2000/svg">
  <!-- Sky Background -->
  <linearGradient id="skyGradient" x1="0%" y1="0%" x2="0%" y2="100%">
    <stop offset="0%" stop-color="#87CEEB" />
    <stop offset="100%" stop-color="#B0E0E6" />
  </linearGradient>
  <rect width="1200" height="800" fill="url(#skyGradient)" />
  
  <!-- Sun -->
  <circle cx="1000" cy="150" r="80" fill="#FFD700" />
  <circle cx="1000" cy="150" r="70" fill="#FFF44F" />
  
  <!-- Hills in Background -->
  <path d="M0,500 Q300,350 600,450 T1200,400 V800 H0 Z" fill="#8FBC8F" />
  <path d="M0,550 Q200,450 400,500 T800,450 T1200,500 V800 H0 Z" fill="#6B8E23" />
  
  <!-- Fields -->
  <rect x="0" y="600" width="1200" height="200" fill="#7FB069" />
  
  <!-- Farm House -->
  <rect x="800" y="450" width="200" height="150" fill="#CD5C5C" />
  <polygon points="800,450 900,350 1000,450" fill="#8B4513" />
  <rect x="850" y="500" width="40" height="60" fill="#4682B4" />
  <rect x="920" y="500" width="40" height="40" fill="#4682B4" />
  <rect x="780" y="500" width="20" height="100" fill="#8B4513" />
  
  <!-- Barn -->
  <rect x="300" y="500" width="180" height="100" fill="#B22222" />
  <polygon points="300,500 390,420 480,500" fill="#8B4513" />
  <rect x="370" y="550" width="40" height="50" fill="#8B4513" />
  
  <!-- Fence -->
  <g fill="#DEB887">
    <rect x="100" y="580" width="10" height="40" />
    <rect x="150" y="580" width="10" height="40" />
    <rect x="200" y="580" width="10" height="40" />
    <rect x="250" y="580" width="10" height="40" />
    <rect x="100" y="590" width="160" height="5" />
    <rect x="100" y="610" width="160" height="5" />
  </g>
  
  <!-- Cows in Field -->
  <g transform="translate(150, 650) scale(0.5)">
    <!-- Cow Body -->
    <ellipse cx="100" cy="100" rx="60" ry="30" fill="#FFFFFF" />
    <!-- Cow Head -->
    <circle cx="40" cy="90" r="20" fill="#FFFFFF" />
    <!-- Cow Spots -->
    <circle cx="90" cy="90" r="10" fill="#000000" />
    <circle cx="120" cy="110" r="15" fill="#000000" />
    <!-- Cow Legs -->
    <rect x="70" y="130" width="10" height="30" fill="#FFFFFF" />
    <rect x="120" y="130" width="10" height="30" fill="#FFFFFF" />
    <rect x="80" y="130" width="10" height="30" fill="#FFFFFF" />
    <rect x="130" y="130" width="10" height="30" fill="#FFFFFF" />
  </g>
  
  <g transform="translate(250, 670) scale(0.4)">
    <!-- Cow Body -->
    <ellipse cx="100" cy="100" rx="60" ry="30" fill="#FFFFFF" />
    <!-- Cow Head -->
    <circle cx="40" cy="90" r="20" fill="#FFFFFF" />
    <!-- Cow Spots -->
    <circle cx="90" cy="90" r="10" fill="#000000" />
    <circle cx="120" cy="110" r="15" fill="#000000" />
    <!-- Cow Legs -->
    <rect x="70" y="130" width="10" height="30" fill="#FFFFFF" />
    <rect x="120" y="130" width="10" height="30" fill="#FFFFFF" />
    <rect x="80" y="130" width="10" height="30" fill="#FFFFFF" />
    <rect x="130" y="130" width="10" height="30" fill="#FFFFFF" />
  </g>
  
  <!-- Trees -->
  <g transform="translate(600, 500)">
    <rect x="-10" y="0" width="20" height="100" fill="#8B4513" />
    <circle cx="0" cy="-20" r="40" fill="#228B22" />
    <circle cx="-20" cy="0" r="30" fill="#228B22" />
    <circle cx="20" cy="0" r="30" fill="#228B22" />
    <circle cx="0" cy="20" r="30" fill="#228B22" />
  </g>
  
  <g transform="translate(700, 520)">
    <rect x="-8" y="0" width="16" height="80" fill="#8B4513" />
    <circle cx="0" cy="-15" r="30" fill="#228B22" />
    <circle cx="-15" cy="0" r="25" fill="#228B22" />
    <circle cx="15" cy="0" r="25" fill="#228B22" />
    <circle cx="0" cy="15" r="25" fill="#228B22" />
  </g>
  
  <!-- Tractor -->
  <g transform="translate(500, 650)">
    <!-- Tractor Body -->
    <rect x="0" y="0" width="60" height="30" fill="#FF0000" />
    <!-- Tractor Cabin -->
    <rect x="40" y="-20" width="20" height="20" fill="#FF0000" />
    <!-- Tractor Wheels -->
    <circle cx="15" cy="35" r="15" fill="#000000" />
    <circle cx="15" cy="35" r="8" fill="#333333" />
    <circle cx="50" cy="35" r="20" fill="#000000" />
    <circle cx="50" cy="35" r="12" fill="#333333" />
  </g>
  
  <!-- Clouds -->
  <g fill="#FFFFFF">
    <ellipse cx="200" cy="150" rx="60" ry="30" />
    <ellipse cx="250" cy="150" rx="50" ry="25" />
    <ellipse cx="300" cy="150" rx="40" ry="20" />
    
    <ellipse cx="600" cy="100" rx="70" ry="35" />
    <ellipse cx="650" cy="100" rx="60" ry="30" />
    <ellipse cx="700" cy="100" rx="50" ry="25" />
  </g>
</svg>